<?xml version="1.0" encoding="UTF-8"?>
<svg width="216px" height="108px" viewBox="0 0 216 108" version="1.1" xmlns="http://www.w3.org/2000/svg" xmlns:xlink="http://www.w3.org/1999/xlink">
    <title>Combined Shape</title>
    <g id="Page-1" stroke="none" stroke-width="1" fill="none" fill-rule="evenodd">
        <g id="norlin_lab_team_2" transform="translate(-1534, -6074)" fill="#FFFFFF">
            <path d="M1740,6074 C1745.52285,6074 1750,6078.47715 1750,6084 L1750,6172 C1750,6177.52285 1745.52285,6182 1740,6182 L1544,6182 C1538.47715,6182 1534,6177.52285 1534,6172 L1534,6084 C1534,6078.47715 1538.47715,6074 1544,6074 L1740,6074 Z M1663.67703,6113.46076 C1662.02017,6113.46076 1660.67703,6114.80391 1660.67703,6116.46076 L1660.677,6125.43191 L1597.0671,6125.43248 C1595.37319,6125.43248 1594,6126.80567 1594,6128.49958 C1594,6130.19349 1595.37319,6131.56668 1597.0671,6131.56668 L1660.677,6131.56591 L1660.67703,6140.5384 C1660.67703,6140.99966 1660.78339,6141.45471 1660.98785,6141.86818 C1661.72227,6143.35337 1663.52162,6143.962 1665.00681,6143.22758 L1689.3526,6131.18876 C1689.94259,6130.89702 1690.42026,6130.41935 1690.712,6129.82936 C1691.44642,6128.34417 1690.83779,6126.54482 1689.3526,6125.8104 L1665.00681,6113.77158 C1664.59334,6113.56712 1664.13829,6113.46076 1663.67703,6113.46076 Z" id="Combined-Shape"></path>
        </g>
    </g>
</svg>