<?xml version="1.0" encoding="UTF-8"?>
<svg width="187.120131px" height="31.9690282px" viewBox="0 0 187.120131 31.9690282" version="1.1" xmlns="http://www.w3.org/2000/svg" xmlns:xlink="http://www.w3.org/1999/xlink">
    <title>norlin_lab_logo_2</title>
    <g id="Page-1" stroke="none" stroke-width="1" fill="none" fill-rule="evenodd">
        <g id="norlin_lab_logo_2" transform="translate(0.4845, 0.4845)">
            <path d="M18.0791162,24.9215686 C19.761951,24.9215686 21.1261582,26.2822718 21.1261582,27.9607843 C21.1261582,29.6392968 19.761951,31 18.0791162,31 C16.3962813,31 15.0320741,29.6392968 15.0320741,27.9607843 C15.0320741,26.2822718 16.3962813,24.9215686 18.0791162,24.9215686 Z M29.5563079,22.6928105 C31.5196152,22.6928105 33.1111903,24.2802975 33.1111903,26.2385621 C33.1111903,28.1968266 31.5196152,29.7843137 29.5563079,29.7843137 C27.5930006,29.7843137 26.0014255,28.1968266 26.0014255,26.2385621 C26.0014255,24.2802975 27.5930006,22.6928105 29.5563079,22.6928105 Z M10.5630791,19.248366 C12.245914,19.248366 13.6101212,20.6090692 13.6101212,22.2875817 C13.6101212,23.9660942 12.245914,25.3267974 10.5630791,25.3267974 C8.88024426,25.3267974 7.51603706,23.9660942 7.51603706,22.2875817 C7.51603706,20.6090692 8.88024426,19.248366 10.5630791,19.248366 Z M19.7042053,11.1437908 C22.50893,11.1437908 24.7826087,13.4116295 24.7826087,16.2091503 C24.7826087,19.0066711 22.50893,21.2745098 19.7042053,21.2745098 C16.8994805,21.2745098 14.6258019,19.0066711 14.6258019,16.2091503 C14.6258019,13.4116295 16.8994805,11.1437908 19.7042053,11.1437908 Z M37.5801853,11.5490196 C39.8239651,11.5490196 41.6429081,13.3632906 41.6429081,15.6013072 C41.6429081,17.8393238 39.8239651,19.6535948 37.5801853,19.6535948 C35.3364055,19.6535948 33.5174626,17.8393238 33.5174626,15.6013072 C33.5174626,13.3632906 35.3364055,11.5490196 37.5801853,11.5490196 Z M4.06272274,11.1437908 C6.30650255,11.1437908 8.12544547,12.9580618 8.12544547,15.1960784 C8.12544547,17.4340951 6.30650255,19.248366 4.06272274,19.248366 C1.81894293,19.248366 0,17.4340951 0,15.1960784 C0,12.9580618 1.81894293,11.1437908 4.06272274,11.1437908 Z M24.4779045,4.66013072 C25.8802669,4.66013072 27.0171062,5.79405006 27.0171062,7.19281046 C27.0171062,8.59157085 25.8802669,9.7254902 24.4779045,9.7254902 C23.0755421,9.7254902 21.9387028,8.59157085 21.9387028,7.19281046 C21.9387028,5.79405006 23.0755421,4.66013072 24.4779045,4.66013072 Z M13.7116892,0 C15.6749966,0 17.2665716,1.58748708 17.2665716,3.54575163 C17.2665716,5.50401619 15.6749966,7.09150327 13.7116892,7.09150327 C11.7483819,7.09150327 10.1568068,5.50401619 10.1568068,3.54575163 C10.1568068,1.58748708 11.7483819,0 13.7116892,0 Z" id="Combined-Shape" stroke="#4175FC" stroke-width="0.96902819"></path>
            <g id="norlin-lab." transform="translate(53.088, 8.5452)" fill="#1B155F" fill-rule="nonzero">
                <polygon id="Path" points="10.9480805 0.20349592 12.7795438 0.20349592 12.7795438 15.4656899 11.0091293 15.4656899 1.85181287 3.19488594 1.85181287 15.4656899 0 15.4656899 0 0.20349592 1.7704145 0.20349592 10.9480805 12.4946495"></polygon>
                <path d="M24.1481825,15.6691858 C22.0046922,15.6691858 20.2274945,14.9128593 18.8165894,13.4002063 C17.4056844,11.8875533 16.7002319,10.0323489 16.7002319,7.83459292 C16.7002319,5.63683698 17.4056844,3.78163251 18.8165894,2.26897951 C20.2274945,0.756326502 22.0046922,0 24.1481825,0 C26.2781065,0 28.0519126,0.756326502 29.4696009,2.26897951 C30.8872891,3.78163251 31.5961332,5.63683698 31.5961332,7.83459292 C31.5961332,10.0323489 30.8872891,11.8875533 29.4696009,13.4002063 C28.0519126,14.9128593 26.2781065,15.6691858 24.1481825,15.6691858 Z M20.037565,12.169056 C21.1093101,13.3221996 22.479516,13.8987713 24.1481825,13.8987713 C25.8168491,13.8987713 27.1802718,13.318808 28.2384505,12.1588812 C29.2966293,10.9989545 29.8257187,9.55752504 29.8257187,7.83459292 C29.8257187,6.11166079 29.2966293,4.67023136 28.2384505,3.51030462 C27.1802718,2.35037787 25.8168491,1.7704145 24.1481825,1.7704145 C22.479516,1.7704145 21.1127017,2.35037787 20.0477398,3.51030462 C18.9827778,4.67023136 18.4502968,6.11166079 18.4502968,7.83459292 C18.4502968,9.55752504 18.9793862,11.0023461 20.037565,12.169056 Z" id="Shape"></path>
                <path d="M41.9472924,8.54682864 L45.7933653,15.4656899 L43.7177069,15.4656899 L40.0751299,8.64857659 L37.3686342,8.64857659 L37.3686342,15.4656899 L35.5168213,15.4656899 L35.5168213,0.20349592 L41.1129591,0.20349592 C42.2932355,0.20349592 43.3039319,0.624054154 44.1450483,1.46517062 C44.9861648,2.30628709 45.406723,3.32376669 45.406723,4.51760942 C45.406723,5.53508902 45.077738,6.42029627 44.4197678,7.17323118 C43.7617977,7.92616608 42.9376392,8.3840319 41.9472924,8.54682864 Z M37.3686342,7.1223572 L41.0722599,7.1223572 C41.8048452,7.1223572 42.4255078,6.8645957 42.9342476,6.3490727 C43.4429874,5.8335497 43.6973573,5.20949555 43.6973573,4.47691024 C43.6973573,3.74432493 43.4395958,3.12366237 42.9240728,2.61492257 C42.4085498,2.10618277 41.7912789,1.85181287 41.0722599,1.85181287 L37.3686342,1.85181287 L37.3686342,7.1223572 Z" id="Shape"></path>
                <polygon id="Path" points="48.9204193 15.4656899 48.9204193 0.20349592 50.7722322 0.20349592 50.7722322 13.817373 56.36837 13.817373 56.36837 15.4656899"></polygon>
                <polygon id="Path" points="59.943115 15.4656899 59.943115 0.20349592 61.7949279 0.20349592 61.7949279 15.4656899"></polygon>
                <polygon id="Path" points="77.1520867 0.20349592 78.98355 0.20349592 78.98355 15.4656899 77.2131355 15.4656899 68.0558191 3.19488594 68.0558191 15.4656899 66.2040062 15.4656899 66.2040062 0.20349592 67.9744207 0.20349592 77.1520867 12.4946495"></polygon>
                <polygon id="Path" points="90.0401617 15.4656899 90.0401617 0.20349592 91.8919746 0.20349592 91.8919746 13.817373 97.4881124 13.817373 97.4881124 15.4656899"></polygon>
                <path d="M112.234783,15.4656899 L110.993458,12.270804 L103.179215,12.270804 L101.93789,15.4656899 L99.9232803,15.4656899 L106.048507,0.20349592 L108.124166,0.20349592 L114.249393,15.4656899 L112.234783,15.4656899 Z M103.769353,10.7038854 L110.40332,10.7038854 L107.086337,2.11635757 L103.769353,10.7038854 Z" id="Shape"></path>
                <path d="M125.048243,7.6107474 C125.984324,7.84137611 126.737259,8.28906714 127.307048,8.95382047 C127.876837,9.61857381 128.161731,10.4393407 128.161731,11.4161211 C128.161731,12.6099638 127.758131,13.5833527 126.95093,14.3362876 C126.14373,15.0892225 125.143208,15.4656899 123.949365,15.4656899 L117.539244,15.4656899 L117.539244,0.20349592 L122.748739,0.20349592 C123.942582,0.20349592 124.949887,0.58335497 125.770654,1.34307307 C126.591421,2.10279117 127.001804,3.07957159 127.001804,4.27341432 C127.001804,5.80641691 126.350617,6.91886128 125.048243,7.6107474 Z M124.376707,6.28802392 C124.89223,5.77250093 125.149991,5.15522997 125.149991,4.43621105 C125.149991,3.71719214 124.895621,3.10670438 124.386882,2.60474777 C123.878142,2.10279117 123.264262,1.85181287 122.545243,1.85181287 L119.391057,1.85181287 L119.391057,7.06130842 L122.545243,7.06130842 C123.264262,7.06130842 123.87475,6.80354692 124.376707,6.28802392 Z M123.70517,13.817373 C124.424189,13.817373 125.038068,13.5596115 125.546808,13.0440885 C126.055548,12.5285655 126.309918,11.9112945 126.309918,11.1922756 C126.309918,10.4868231 126.055548,9.87972691 125.546808,9.37098711 C125.038068,8.86224731 124.424189,8.60787741 123.70517,8.60787741 L119.391057,8.60787741 L119.391057,13.817373 L123.70517,13.817373 Z" id="Shape"></path>
                <path d="M133.181297,15.3232428 C132.950668,15.5538715 132.672557,15.6691858 132.346964,15.6691858 C132.02137,15.6691858 131.743259,15.5504799 131.51263,15.313068 C131.282002,15.0756561 131.166687,14.7941534 131.166687,14.4685599 C131.166687,14.1565328 131.282002,13.8818133 131.51263,13.6444014 C131.743259,13.4069895 132.02137,13.2882836 132.346964,13.2882836 C132.672557,13.2882836 132.95406,13.4069895 133.191472,13.6444014 C133.428884,13.8818133 133.54759,14.1565328 133.54759,14.4685599 C133.54759,14.7941534 133.425492,15.0790477 133.181297,15.3232428 Z" id="Path"></path>
            </g>
        </g>
    </g>
</svg>