<?xml version="1.0" encoding="UTF-8"?>
<svg width="386.303739px" height="66px" viewBox="0 0 386.303739 66" version="1.1" xmlns="http://www.w3.org/2000/svg" xmlns:xlink="http://www.w3.org/1999/xlink">
    <title>norlin_lab_logo_2</title>
    <g id="Page-1" stroke="none" stroke-width="1" fill="none" fill-rule="evenodd">
        <g id="norlin_lab_logo_2" transform="translate(1, 1)">
            <path d="M37.3497164,51.4509804 C40.8262915,51.4509804 43.6446125,54.2601741 43.6446125,57.7254902 C43.6446125,61.1908063 40.8262915,64 37.3497164,64 C33.8731414,64 31.0548204,61.1908063 31.0548204,57.7254902 C31.0548204,54.2601741 33.8731414,51.4509804 37.3497164,51.4509804 Z M61.0604915,46.8496732 C65.1164958,46.8496732 68.4045369,50.1270659 68.4045369,54.1699346 C68.4045369,58.2128034 65.1164958,61.4901961 61.0604915,61.4901961 C57.0044872,61.4901961 53.7164461,58.2128034 53.7164461,54.1699346 C53.7164461,50.1270659 57.0044872,46.8496732 61.0604915,46.8496732 Z M21.8223062,39.7385621 C25.2988813,39.7385621 28.1172023,42.5477558 28.1172023,46.0130719 C28.1172023,49.478388 25.2988813,52.2875817 21.8223062,52.2875817 C18.3457312,52.2875817 15.5274102,49.478388 15.5274102,46.0130719 C15.5274102,42.5477558 18.3457312,39.7385621 21.8223062,39.7385621 Z M40.7069943,23.0065359 C46.5012861,23.0065359 51.1984877,27.6885255 51.1984877,33.4640523 C51.1984877,39.2395791 46.5012861,43.9215686 40.7069943,43.9215686 C34.9127025,43.9215686 30.2155009,39.2395791 30.2155009,33.4640523 C30.2155009,27.6885255 34.9127025,23.0065359 40.7069943,23.0065359 Z M77.637051,23.8431373 C82.2724845,23.8431373 86.0302457,27.5887289 86.0302457,32.2091503 C86.0302457,36.8295718 82.2724845,40.5751634 77.637051,40.5751634 C73.0016176,40.5751634 69.2438563,36.8295718 69.2438563,32.2091503 C69.2438563,27.5887289 73.0016176,23.8431373 77.637051,23.8431373 Z M8.39319471,23.0065359 C13.0286281,23.0065359 16.7863894,26.7521276 16.7863894,31.372549 C16.7863894,35.9929705 13.0286281,39.7385621 8.39319471,39.7385621 C3.75776127,39.7385621 0,35.9929705 0,31.372549 C0,26.7521276 3.75776127,23.0065359 8.39319471,23.0065359 Z M50.5689981,9.62091503 C53.466144,9.62091503 55.8147448,11.9619098 55.8147448,14.8496732 C55.8147448,17.7374366 53.466144,20.0784314 50.5689981,20.0784314 C47.6718522,20.0784314 45.3232514,17.7374366 45.3232514,14.8496732 C45.3232514,11.9619098 47.6718522,9.62091503 50.5689981,9.62091503 Z M28.3270321,0 C32.3830364,0 35.6710775,3.27739268 35.6710775,7.32026144 C35.6710775,11.3631302 32.3830364,14.6405229 28.3270321,14.6405229 C24.2710279,14.6405229 20.9829868,11.3631302 20.9829868,7.32026144 C20.9829868,3.27739268 24.2710279,0 28.3270321,0 Z" id="Combined-Shape" stroke="#4175FC" stroke-width="2"></path>
            <g id="norlin-lab." transform="translate(109.6717, 17.167)" fill="#1B155F" fill-rule="nonzero">
                <polygon id="Path" points="22.596 0.42 26.376 0.42 26.376 31.92 22.722 31.92 3.822 6.594 3.822 31.92 0 31.92 0 0.42 3.654 0.42 22.596 25.788"></polygon>
                <path d="M49.84,32.34 C45.416,32.34 41.748,30.779 38.836,27.657 C35.924,24.535 34.468,20.706 34.468,16.17 C34.468,11.634 35.924,7.805 38.836,4.683 C41.748,1.561 45.416,0 49.84,0 C54.236,0 57.897,1.561 60.823,4.683 C63.749,7.805 65.212,11.634 65.212,16.17 C65.212,20.706 63.749,24.535 60.823,27.657 C57.897,30.779 54.236,32.34 49.84,32.34 Z M41.356,25.116 C43.568,27.496 46.396,28.686 49.84,28.686 C53.284,28.686 56.098,27.489 58.282,25.095 C60.466,22.701 61.558,19.726 61.558,16.17 C61.558,12.614 60.466,9.639 58.282,7.245 C56.098,4.851 53.284,3.654 49.84,3.654 C46.396,3.654 43.575,4.851 41.377,7.245 C39.179,9.639 38.08,12.614 38.08,16.17 C38.08,19.726 39.172,22.708 41.356,25.116 Z" id="Shape"></path>
                <path d="M86.576,17.64 L94.514,31.92 L90.23,31.92 L82.712,17.85 L77.126,17.85 L77.126,31.92 L73.304,31.92 L73.304,0.42 L84.854,0.42 C87.29,0.42 89.376,1.288 91.112,3.024 C92.848,4.76 93.716,6.86 93.716,9.324 C93.716,11.424 93.037,13.251 91.679,14.805 C90.321,16.359 88.62,17.304 86.576,17.64 Z M77.126,14.7 L84.77,14.7 C86.282,14.7 87.563,14.168 88.613,13.104 C89.663,12.04 90.188,10.752 90.188,9.24 C90.188,7.728 89.656,6.447 88.592,5.397 C87.528,4.347 86.254,3.822 84.77,3.822 L77.126,3.822 L77.126,14.7 Z" id="Shape"></path>
                <polygon id="Path" points="100.968 31.92 100.968 0.42 104.79 0.42 104.79 28.518 116.34 28.518 116.34 31.92"></polygon>
                <polygon id="Path" points="123.718 31.92 123.718 0.42 127.54 0.42 127.54 31.92"></polygon>
                <polygon id="Path" points="159.236 0.42 163.016 0.42 163.016 31.92 159.362 31.92 140.462 6.594 140.462 31.92 136.64 31.92 136.64 0.42 140.294 0.42 159.236 25.788"></polygon>
                <polygon id="Path" points="185.836 31.92 185.836 0.42 189.658 0.42 189.658 28.518 201.208 28.518 201.208 31.92"></polygon>
                <path d="M231.644,31.92 L229.082,25.326 L212.954,25.326 L210.392,31.92 L206.234,31.92 L218.876,0.42 L223.16,0.42 L235.802,31.92 L231.644,31.92 Z M214.172,22.092 L227.864,22.092 L221.018,4.368 L214.172,22.092 Z" id="Shape"></path>
                <path d="M258.09,15.708 C260.022,16.184 261.576,17.108 262.752,18.48 C263.928,19.852 264.516,21.546 264.516,23.562 C264.516,26.026 263.683,28.035 262.017,29.589 C260.351,31.143 258.286,31.92 255.822,31.92 L242.592,31.92 L242.592,0.42 L253.344,0.42 C255.808,0.42 257.887,1.204 259.581,2.772 C261.275,4.34 262.122,6.356 262.122,8.82 C262.122,11.984 260.778,14.28 258.09,15.708 Z M256.704,12.978 C257.768,11.914 258.3,10.64 258.3,9.156 C258.3,7.672 257.775,6.412 256.725,5.376 C255.675,4.34 254.408,3.822 252.924,3.822 L246.414,3.822 L246.414,14.574 L252.924,14.574 C254.408,14.574 255.668,14.042 256.704,12.978 Z M255.318,28.518 C256.802,28.518 258.069,27.986 259.119,26.922 C260.169,25.858 260.694,24.584 260.694,23.1 C260.694,21.644 260.169,20.391 259.119,19.341 C258.069,18.291 256.802,17.766 255.318,17.766 L246.414,17.766 L246.414,28.518 L255.318,28.518 Z" id="Shape"></path>
                <path d="M274.876,31.626 C274.4,32.102 273.826,32.34 273.154,32.34 C272.482,32.34 271.908,32.095 271.432,31.605 C270.956,31.115 270.718,30.534 270.718,29.862 C270.718,29.218 270.956,28.651 271.432,28.161 C271.908,27.671 272.482,27.426 273.154,27.426 C273.826,27.426 274.407,27.671 274.897,28.161 C275.387,28.651 275.632,29.218 275.632,29.862 C275.632,30.534 275.38,31.122 274.876,31.626 Z" id="Path"></path>
            </g>
        </g>
    </g>
</svg>